<?xml version="1.0" standalone="no"?>
<!DOCTYPE svg PUBLIC "-//W3C//DTD SVG 20010904//EN"
 "http://www.w3.org/TR/2001/REC-SVG-20010904/DTD/svg10.dtd">
<svg version="1.0" xmlns="http://www.w3.org/2000/svg"
 width="700.000000pt" height="700.000000pt" viewBox="0 0 700.000000 700.000000"
 preserveAspectRatio="xMidYMid meet">
<metadata>
Created by potrace 1.11, written by Peter Selinger 2001-2013
</metadata>
<g transform="translate(0.000000,700.000000) scale(0.100000,-0.100000)"
fill="#000000" stroke="none">
<path d="M2408 6804 c-30 -16 -58 -61 -58 -94 0 -33 18 -60 83 -127 34 -35 58
-63 53 -63 -5 0 -63 -11 -130 -25 -607 -123 -1129 -546 -1480 -1200 l-38 -70
-371 -140 c-405 -152 -427 -164 -427 -232 0 -70 13 -81 272 -222 134 -73 247
-136 252 -141 5 -5 -3 -68 -18 -147 -43 -225 -57 -354 -63 -605 -11 -427 35
-756 159 -1138 201 -621 615 -1135 1154 -1433 236 -131 449 -208 807 -291 l27
-6 0 -235 0 -234 -276 -3 -276 -3 -29 -33 c-40 -45 -40 -99 0 -144 l29 -33
1064 -3 c1040 -2 1064 -2 1095 17 70 43 63 155 -11 186 -26 11 -76 15 -186 15
l-150 0 0 190 c0 148 3 190 13 190 40 0 279 34 391 56 889 173 1676 724 2220
1553 56 86 123 192 148 236 130 228 298 603 298 665 0 62 -45 110 -103 110
-12 0 -66 -11 -120 -25 -315 -80 -607 -73 -835 20 -246 100 -463 315 -672 665
-45 74 -149 272 -232 440 -82 168 -194 395 -249 505 -169 343 -327 603 -486
800 -100 125 -293 311 -402 389 -227 162 -509 275 -789 316 l-83 12 64 67 c39
40 67 79 71 98 19 84 -72 160 -147 122 -12 -6 -70 -59 -129 -117 l-108 -107
-107 107 c-60 58 -118 111 -130 117 -29 15 -62 13 -95 -5z m602 -5998 c182
-24 343 -36 508 -36 l152 0 0 -185 0 -185 -410 0 -410 0 0 216 0 216 23 -5
c12 -3 74 -13 137 -21z"/>
</g>
</svg>
