<?xml version="1.0" standalone="no"?>
<!DOCTYPE svg PUBLIC "-//W3C//DTD SVG 20010904//EN"
 "http://www.w3.org/TR/2001/REC-SVG-20010904/DTD/svg10.dtd">
<svg version="1.0" xmlns="http://www.w3.org/2000/svg"
 width="500.000000pt" height="500.000000pt" viewBox="0 0 500.000000 500.000000"
 preserveAspectRatio="xMidYMid meet">
<metadata>
Created by potrace 1.11, written by Peter Selinger 2001-2013
</metadata>
<g transform="translate(0.000000,500.000000) scale(0.100000,-0.100000)"
fill="#232323" stroke="none">
<path d="M1711 4851 c-12 -10 -24 -33 -26 -51 -3 -28 3 -40 46 -85 27 -28 49
-54 49 -57 0 -3 -19 -8 -42 -11 -48 -6 -55 -8 -148 -32 -373 -97 -732 -403
-951 -813 -19 -35 -42 -68 -51 -73 -10 -5 -77 -32 -150 -60 -73 -27 -142 -54
-153 -58 -11 -5 -65 -26 -120 -46 -55 -20 -108 -46 -117 -57 -21 -24 -23 -66
-5 -90 8 -9 92 -60 188 -112 187 -102 181 -96 167 -171 -89 -460 -66 -899 69
-1295 98 -289 265 -556 465 -745 102 -96 116 -107 233 -186 165 -111 398 -213
580 -254 6 -1 38 -8 73 -15 59 -13 62 -15 63 -45 1 -39 1 -298 0 -306 -1 -3
-76 -6 -168 -7 -93 0 -181 -1 -196 -1 -38 -1 -79 -43 -73 -75 7 -39 24 -63 48
-69 13 -3 360 -6 772 -6 l748 0 24 24 c30 30 31 66 1 101 -22 26 -26 26 -142
28 l-119 1 -1 138 c0 131 1 137 20 138 20 0 40 3 130 14 402 51 825 233 1153
497 356 285 666 705 848 1148 46 114 51 138 33 171 -20 38 -52 40 -162 14
-139 -33 -167 -36 -278 -36 -345 -1 -576 164 -817 583 -47 82 -91 170 -262
523 -258 535 -467 812 -747 991 -158 101 -398 183 -551 187 -13 0 -8 7 56 75
40 43 42 83 6 119 -41 41 -75 27 -168 -68 l-79 -80 -87 85 c-94 92 -118 102
-159 67z m464 -4276 c66 -11 117 -15 275 -21 91 -3 167 -8 170 -11 3 -2 5 -62
5 -132 l0 -128 -295 1 -295 1 -2 154 -3 153 58 -6 c31 -3 71 -8 87 -11z"/>
</g>
</svg>
