<svg xmlns="http://www.w3.org/2000/svg" fill="#242423" viewBox="0 0 44 44"><title>edit@1x</title><g id="Layer_2" data-name="Layer 2"><g id="General"><g id="Write_2x.png" data-name="Write@2x.png"><path d="M11,33l8.54-1.46,23-23a5,5,0,1,0-7.07-7.07l-23,23ZM36.88,2.88a3,3,0,0,1,4.24,4.24L39.83,8.41,35.59,4.17ZM34.17,5.59l4.24,4.24L20,28.24V24H15.76ZM14.27,26H18v3.73l-4.5.77ZM43,15a1,1,0,0,0-1,1V38a4,4,0,0,1-4,4H6a4,4,0,0,1-4-4V6A4,4,0,0,1,6,2H28a1,1,0,0,0,0-2H6A6,6,0,0,0,0,6V38a6,6,0,0,0,6,6H38a6,6,0,0,0,6-6V16A1,1,0,0,0,43,15Z"/></g></g></g></svg>