<?xml version="1.0" encoding="UTF-8"?>
<svg width="25px" height="26px" viewBox="0 0 25 26" version="1.1" xmlns="http://www.w3.org/2000/svg" xmlns:xlink="http://www.w3.org/1999/xlink">
    <!-- Generator: Sketch 42 (36781) - http://www.bohemiancoding.com/sketch -->
    <title>gear</title>
    <desc>Created with Sketch.</desc>
    <defs></defs>
    <g id="Page-1" stroke="none" stroke-width="1" fill="none" fill-rule="evenodd" stroke-linecap="round" stroke-linejoin="round">
        <g id="Outline" transform="translate(-200.000000, -299.000000)" stroke="#242423">
            <g id="gear" transform="translate(200.000000, 300.500000)">
                <path d="M16.5,12 C16.5,14.209 14.709,16 12.5,16 C10.291,16 8.5,14.209 8.5,12 C8.5,9.791 10.291,8 12.5,8 C14.709,8 16.5,9.791 16.5,12 Z" id="Stroke-27"></path>
                <path d="M24.5,12.6807 L24.5,11.3197 C24.5,10.8427 24.164,10.4327 23.696,10.3387 L21.805,9.9607 C21.148,9.8297 20.605,9.3757 20.351,8.7567 C20.348,8.7497 20.346,8.7427 20.343,8.7377 C20.087,8.1187 20.151,7.4177 20.521,6.8627 L21.591,5.2577 C21.855,4.8617 21.803,4.3327 21.466,3.9957 L20.504,3.0347 C20.167,2.6967 19.639,2.6447 19.243,2.9097 L17.638,3.9787 C17.082,4.3497 16.38,4.4127 15.763,4.1577 C15.756,4.1547 15.75,4.1517 15.743,4.1497 C15.124,3.8947 14.67,3.3517 14.539,2.6957 L14.161,0.8037 C14.067,0.3367 13.657,-0.0003 13.18,-0.0003 L11.82,-0.0003 C11.343,-0.0003 10.933,0.3367 10.839,0.8037 L10.461,2.6957 C10.33,3.3517 9.876,3.8947 9.257,4.1497 C9.25,4.1517 9.244,4.1547 9.237,4.1577 C8.62,4.4127 7.918,4.3497 7.362,3.9787 L5.757,2.9097 C5.361,2.6447 4.833,2.6967 4.496,3.0347 L3.534,3.9957 C3.197,4.3327 3.145,4.8617 3.409,5.2577 L4.479,6.8627 C4.849,7.4177 4.913,8.1187 4.657,8.7377 C4.654,8.7427 4.652,8.7497 4.649,8.7567 C4.395,9.3757 3.852,9.8297 3.195,9.9607 L1.304,10.3387 C0.836,10.4327 0.5,10.8427 0.5,11.3197 L0.5,12.6807 C0.5,13.1577 0.836,13.5677 1.304,13.6607 L3.195,14.0387 C3.852,14.1697 4.395,14.6237 4.649,15.2437 C4.652,15.2497 4.654,15.2557 4.657,15.2627 C4.913,15.8807 4.849,16.5817 4.479,17.1377 L3.409,18.7427 C3.145,19.1387 3.197,19.6667 3.534,20.0037 L4.496,20.9657 C4.833,21.3037 5.361,21.3557 5.757,21.0907 L7.362,20.0217 C7.918,19.6507 8.62,19.5867 9.237,19.8427 C9.244,19.8457 9.25,19.8487 9.256,19.8507 C9.876,20.1057 10.33,20.6487 10.461,21.3047 L10.839,23.1967 C10.933,23.6627 11.343,23.9997 11.82,23.9997 L13.18,23.9997 C13.657,23.9997 14.067,23.6627 14.161,23.1967 L14.539,21.3047 C14.67,20.6487 15.124,20.1057 15.744,19.8507 C15.75,19.8487 15.756,19.8457 15.763,19.8427 C16.38,19.5867 17.082,19.6507 17.638,20.0217 L19.243,21.0907 C19.639,21.3557 20.167,21.3037 20.504,20.9657 L21.466,20.0037 C21.803,19.6667 21.855,19.1387 21.591,18.7427 L20.521,17.1377 C20.151,16.5817 20.087,15.8807 20.343,15.2627 C20.346,15.2557 20.348,15.2497 20.351,15.2437 C20.605,14.6237 21.148,14.1697 21.805,14.0387 L23.696,13.6607 C24.164,13.5677 24.5,13.1577 24.5,12.6807 Z" id="Stroke-29"></path>
            </g>
        </g>
    </g>
</svg>