<svg xmlns="http://www.w3.org/2000/svg" fill="#232323" viewBox="0 0 44 40.02"><title>gift@1x</title><g id="Layer_2" data-name="Layer 2"><g id="General"><g id="Gift_2x.png" data-name="Gift@2x.png"><path d="M42,8H34.37a5.68,5.68,0,0,0-.09-5.25C32.62-.1,28.57-.86,25.22,1.07A7.64,7.64,0,0,0,22.34,4l-.09,0h-.38a.89.89,0,0,0-.14,0l-.09,0a7.63,7.63,0,0,0-2.88-2.95C15.4-.86,11.34-.1,9.69,2.77A5.68,5.68,0,0,0,9.6,8H2a2,2,0,0,0-2,2v4a2,2,0,0,0,2,2V38a2,2,0,0,0,2,2H40a2,2,0,0,0,2-2V16a2,2,0,0,0,2-2V10A2,2,0,0,0,42,8ZM11.42,3.77c1.1-1.91,3.94-2.34,6.33-1A5.32,5.32,0,0,1,20.44,6.5c-.19.52-.39,1-.6,1.52h-8A3.94,3.94,0,0,1,11.42,3.77ZM2,14V10H18.88a30.6,30.6,0,0,1-2.57,4ZM21,38H4V28H21Zm0-12H4V16H14.67a25.38,25.38,0,0,1-2.3,2.31,1,1,0,0,0-.13,1.41,1,1,0,0,0,.51.33,1,1,0,0,0,.9-.2A29.22,29.22,0,0,0,17.3,16H21Zm0-12H18.79A31.13,31.13,0,0,0,21,10.27ZM26.22,2.8c2.39-1.38,5.23-.95,6.33,1A3.94,3.94,0,0,1,32.09,8h-8c-.21-.49-.42-1-.6-1.52A5.32,5.32,0,0,1,26.22,2.8ZM23,10.33A31.33,31.33,0,0,0,25.18,14H23ZM40,38H23V28H40Zm0-12H23V16h3.66a29.21,29.21,0,0,0,3.65,3.85,1,1,0,0,0,1.28-1.54A25.47,25.47,0,0,1,29.3,16H40Zm2-12H27.66a30.5,30.5,0,0,1-2.57-4H42Z"/></g></g></g></svg>