<svg xmlns="http://www.w3.org/2000/svg" fill="#232323" viewBox="0 0 30 44"><title>trash-2@1x</title><g id="Layer_2" data-name="Layer 2"><g id="General"><g id="Trash_Full_2x.png" data-name="Trash Full@2x.png"><path d="M21,38a1,1,0,0,0,1-1l1.45-24a1,1,0,1,0-2-.07L20,37A1,1,0,0,0,21,38ZM9,38a1,1,0,0,0,1-1L8.53,13a1,1,0,1,0-2,.07L8,37A1,1,0,0,0,9,38Zm6,0a1,1,0,0,0,1-1V13a1,1,0,0,0-2,0V37A1,1,0,0,0,15,38ZM29,6H27.33a7.06,7.06,0,0,1-1.76-2A5.52,5.52,0,0,0,20.5,1c-2.43,0-4,.63-4.9,1.63a1.25,1.25,0,0,1-.91.35,1.62,1.62,0,0,1-1.32-.7C12.93.75,11.37,0,9.5,0A3.93,3.93,0,0,0,5.63,2.65,6,6,0,0,0,1.68,6H1A1,1,0,0,0,0,7H0L2,40c.32,2.19,1.79,4,4,4H24c2.21,0,3.62-1.83,4-4L30,7h0A1,1,0,0,0,29,6ZM6.29,4.54A2,2,0,0,0,7.56,3.2,2,2,0,0,1,9.5,2c1.05,0,1.77.23,1.94.83a2,2,0,0,0,.3.61A3.6,3.6,0,0,0,14.69,5a3.27,3.27,0,0,0,2.39-1c.55-.61,1.59-1,3.42-1a3.19,3.19,0,0,1,3,1.5A4.62,4.62,0,0,0,24.57,6H3.93A5.44,5.44,0,0,1,6.29,4.54ZM26,40a2.13,2.13,0,0,1-2,2H6a2.14,2.14,0,0,1-2-2L2.06,8H27.94Z"/></g></g></g></svg>