<?xml version="1.0" encoding="UTF-8"?>
<svg width="25px" height="26px" viewBox="0 0 25 26" version="1.1" xmlns="http://www.w3.org/2000/svg" xmlns:xlink="http://www.w3.org/1999/xlink">
    <!-- Generator: Sketch 42 (36781) - http://www.bohemiancoding.com/sketch -->
    <title>user-female</title>
    <desc>Created with Sketch.</desc>
    <defs></defs>
    <g id="Page-1" stroke="none" stroke-width="1" fill="none" fill-rule="evenodd" stroke-linecap="round" stroke-linejoin="round">
        <g id="Outline" transform="translate(-350.000000, -400.000000)" stroke="#242423">
            <g id="user-female" transform="translate(350.000000, 400.000000)">
                <path d="M24.5,12.5002 C24.5,19.1272 19.127,24.5002 12.5,24.5002 C5.873,24.5002 0.5,19.1272 0.5,12.5002 C0.5,5.8722 5.873,0.5002 12.5,0.5002 C19.127,0.5002 24.5,5.8722 24.5,12.5002 Z" id="Stroke-48"></path>
                <path d="M14.98,17.4914 C14.98,17.4514 14.988,17.4134 14.99,17.3734 C17.68,17.1044 19.5,16.5014 19.5,16.5014 C19.5,16.5014 18,14.5014 18,11.0014 C18,7.0014 16.5,3.5014 12.5,3.5014 C8.5,3.5014 7,7.0014 7,11.0014 C7,14.5014 5.5,16.5014 5.5,16.5014 C5.5,16.5014 7.32,17.1044 10.01,17.3734 C10.012,17.4134 10.02,17.4514 10.02,17.4914 C10.02,20.7814 7,20.6114 4.92,21.8104 C6.99,23.4914 9.62,24.5014 12.5,24.5014 C15.38,24.5014 18.01,23.4914 20.08,21.8104 C18,20.6114 14.98,20.7814 14.98,17.4914 Z" id="Stroke-49"></path>
            </g>
        </g>
    </g>
</svg>